<?xml version="1.0" standalone="no"?>
<!DOCTYPE svg PUBLIC "-//W3C//DTD SVG 20010904//EN"
 "http://www.w3.org/TR/2001/REC-SVG-20010904/DTD/svg10.dtd">
<svg version="1.0" xmlns="http://www.w3.org/2000/svg"
 width="700.000000pt" height="700.000000pt" viewBox="0 0 700.000000 700.000000"
 preserveAspectRatio="xMidYMid meet">
<metadata>
Created by potrace 1.11, written by Peter Selinger 2001-2013
</metadata>
<g transform="translate(0.000000,700.000000) scale(0.100000,-0.100000)"
fill="#000000" stroke="none">
<path d="M2750 6615 c0 -6 -35 -10 -83 -11 -45 0 -93 -4 -107 -7 -14 -3 -36
-9 -50 -12 -14 -4 -31 -7 -37 -7 -7 -1 -13 -6 -13 -11 0 -6 -3 -8 -6 -4 -7 6
-100 -39 -109 -53 -4 -6 -11 -8 -16 -5 -5 4 -12 -1 -15 -9 -3 -9 -12 -16 -20
-16 -8 0 -14 -4 -14 -9 0 -5 -15 -18 -32 -30 -18 -11 -30 -21 -27 -21 4 0 -10
-17 -30 -39 -20 -21 -43 -51 -51 -67 -8 -16 -17 -31 -20 -34 -3 -3 -12 -14
-20 -24 -12 -17 -13 -18 -1 -11 9 5 6 -5 -7 -28 -13 -19 -25 -50 -27 -69 -2
-18 -9 -34 -14 -36 -5 -2 -7 -10 -4 -18 3 -8 -1 -14 -8 -14 -12 0 -12 -2 0 -9
8 -5 10 -14 5 -22 -4 -8 -9 -158 -10 -334 -1 -176 -2 -325 -3 -331 -1 -12 -62
-11 -83 2 -6 4 -8 3 -4 -4 4 -7 -1 -10 -14 -9 -11 1 -20 5 -20 10 0 4 -6 5
-12 0 -17 -10 -29 -11 -56 -1 -14 5 -21 4 -17 -1 3 -6 -4 -9 -15 -8 -11 1 -20
5 -20 10 0 5 -6 5 -12 -1 -18 -15 -20 -15 -51 -3 -16 6 -26 7 -22 2 3 -6 -4
-9 -15 -8 -11 1 -20 5 -20 10 0 4 -6 5 -12 0 -19 -11 -88 -10 -88 2 0 5 -4 4
-9 -3 -11 -17 -21 -17 -32 0 -5 7 -9 8 -9 2 0 -6 -7 -11 -15 -11 -8 0 -15 5
-15 11 0 6 -4 5 -9 -2 -4 -8 -12 -14 -16 -14 -4 0 -12 6 -16 14 -5 7 -9 8 -9
2 0 -6 -7 -11 -15 -11 -8 0 -15 5 -15 11 0 6 -4 5 -9 -2 -4 -8 -12 -14 -16
-14 -4 0 -12 6 -16 14 -5 7 -9 8 -9 2 0 -6 -7 -11 -15 -11 -8 0 -15 5 -15 11
0 6 -4 5 -9 -2 -4 -8 -12 -14 -16 -14 -4 0 -12 6 -16 14 -5 7 -9 8 -9 2 0 -6
-7 -11 -15 -11 -8 0 -15 5 -15 11 0 6 -4 5 -9 -2 -11 -17 -21 -17 -32 0 -5 7
-9 8 -9 2 0 -6 -7 -11 -15 -11 -8 0 -15 5 -15 11 0 6 -4 5 -9 -2 -4 -8 -12
-14 -16 -14 -4 0 -12 6 -16 14 -5 7 -9 8 -9 2 0 -6 -7 -11 -15 -11 -8 0 -15 5
-15 11 0 6 -4 5 -9 -2 -4 -8 -12 -14 -16 -14 -4 0 -12 6 -16 14 -5 7 -9 8 -9
2 0 -6 -7 -11 -15 -11 -8 0 -15 5 -15 11 0 7 -3 7 -8 1 -11 -15 -32 -17 -32
-3 0 9 -3 9 -11 1 -8 -8 -20 -8 -36 -2 -15 5 -22 5 -18 0 3 -6 -4 -9 -15 -8
-11 1 -20 5 -20 10 0 5 -6 5 -12 -1 -15 -12 -25 -12 -56 -1 -14 6 -21 5 -17 0
3 -6 -4 -9 -15 -8 -11 1 -20 5 -20 10 0 5 -6 5 -12 -1 -15 -12 -25 -12 -56 -1
-14 6 -21 5 -17 0 3 -6 -4 -9 -15 -8 -11 1 -20 5 -20 10 0 5 -7 3 -17 -4 -9
-8 -19 -12 -22 -10 -19 11 -51 20 -46 12 3 -6 -4 -9 -15 -8 -11 1 -20 5 -20
10 0 5 -7 3 -17 -4 -9 -8 -19 -12 -22 -10 -19 11 -51 20 -46 12 3 -6 -4 -9
-15 -8 -11 1 -20 5 -20 10 0 4 -6 5 -12 0 -19 -11 -88 -10 -88 2 0 5 -4 4 -9
-3 -11 -17 -21 -17 -32 0 -5 7 -9 8 -9 2 0 -6 -7 -11 -15 -11 -8 0 -15 5 -15
11 0 6 -4 5 -9 -2 -11 -17 -21 -17 -32 0 -5 7 -9 8 -9 2 0 -14 -30 -14 -30 0
0 7 -3 7 -8 1 -11 -15 -32 -17 -32 -3 0 10 -2 10 -9 0 -11 -17 -21 -17 -32 0
-7 10 -9 10 -9 0 0 -9 -5 -10 -19 -2 -19 10 -19 -30 -19 -2485 0 -2068 2
-2495 13 -2495 7 0 16 -6 18 -12 3 -8 6 -9 6 -2 1 6 12 9 26 6 14 -2 31 1 39
7 10 9 16 9 21 1 4 -6 16 -8 27 -4 15 4 18 3 13 -6 -6 -9 -4 -11 6 -5 21 14
101 16 93 3 -5 -7 -2 -8 7 -3 21 14 119 14 112 1 -3 -6 0 -6 7 1 9 9 19 9 33
2 13 -8 17 -8 13 -1 -4 7 5 10 23 10 18 -1 28 -5 24 -11 -4 -6 -1 -7 8 -2 21
14 101 16 93 3 -5 -7 -2 -8 7 -3 21 14 119 14 112 1 -3 -6 0 -6 7 1 9 9 19 9
33 2 13 -8 17 -8 13 -1 -4 7 5 10 23 10 18 -1 28 -5 24 -11 -4 -6 -1 -7 8 -2
21 14 101 16 93 3 -5 -7 -2 -8 7 -3 21 14 119 14 112 1 -3 -6 0 -6 7 1 9 9 19
9 33 2 13 -8 17 -8 13 -1 -4 7 5 10 23 10 18 -1 28 -5 24 -11 -4 -6 -1 -7 8
-2 21 14 101 16 93 3 -5 -7 -2 -8 7 -2 20 12 93 12 101 -1 5 -6 8 -6 8 2 0 7
7 10 17 6 12 -5 14 -3 8 8 -7 11 -6 12 6 3 8 -6 42 -10 76 -9 41 1 60 -2 56
-9 -3 -6 0 -6 7 1 9 9 19 9 33 2 13 -8 17 -8 13 -1 -4 7 5 10 23 10 18 -1 28
-5 24 -11 -4 -6 -1 -7 8 -2 21 14 101 16 93 3 -5 -7 -2 -8 7 -2 20 12 93 12
101 -1 5 -6 8 -6 8 2 0 7 7 10 17 6 12 -5 14 -3 8 8 -7 11 -6 12 6 3 8 -6 42
-10 77 -9 35 0 66 -3 68 -7 3 -5 11 -5 17 -1 17 11 69 11 91 0 12 -6 16 -6 12
1 -4 7 5 10 23 10 18 -1 28 -5 24 -11 -4 -6 -1 -7 8 -1 20 12 112 12 121 -1 5
-6 8 -6 8 2 0 7 7 10 17 6 12 -5 14 -3 8 8 -7 11 -6 12 6 3 8 -6 42 -10 76 -9
41 1 60 -2 56 -9 -3 -6 0 -6 7 1 9 9 19 9 33 2 13 -8 17 -8 13 -1 -4 7 5 10
23 10 18 -1 28 -5 24 -11 -4 -6 -1 -7 8 -2 21 14 101 16 93 3 -5 -7 -2 -8 7
-2 20 12 93 12 101 -1 5 -6 8 -6 8 2 0 7 7 10 17 6 12 -5 14 -3 8 8 -7 11 -6
12 6 3 8 -6 42 -10 77 -9 35 0 66 -3 68 -7 3 -5 11 -5 17 -1 17 11 69 11 91 0
12 -6 16 -6 12 1 -4 7 5 10 23 10 18 -1 28 -5 24 -11 -4 -6 -1 -7 8 -1 20 12
112 12 121 -1 5 -6 8 -6 8 2 0 7 7 10 17 6 12 -5 14 -3 8 8 -7 11 -6 12 6 3 8
-6 42 -10 76 -9 34 1 60 -2 57 -7 -3 -4 5 -4 18 0 13 5 37 7 53 5 36 -4 41 -4
80 0 17 1 36 -2 43 -7 8 -5 12 -4 12 5 0 11 2 11 10 -1 5 -8 10 -10 10 -4 0
12 29 12 48 0 6 -4 12 -4 12 1 0 10 52 9 68 -1 7 -4 12 -4 12 1 0 9 67 9 76 0
3 -3 18 -2 32 1 35 9 64 8 80 -1 7 -5 12 -3 12 4 0 8 4 8 13 1 7 -6 18 -8 24
-4 15 9 55 8 71 -2 7 -4 12 -2 12 6 0 9 3 9 10 -2 5 -8 10 -10 10 -5 0 11 45
13 56 3 3 -4 18 -3 32 0 35 9 64 8 80 -1 7 -5 12 -3 12 4 0 8 4 8 13 1 7 -6
18 -8 24 -4 15 9 55 8 71 -2 7 -4 12 -2 12 6 0 9 3 9 10 -2 5 -8 10 -10 10 -5
0 11 45 13 56 3 3 -4 18 -3 32 0 35 9 64 8 80 -1 7 -5 12 -3 12 4 0 8 4 8 13
1 7 -6 18 -8 24 -4 15 9 55 8 71 -2 7 -4 12 -2 12 6 0 9 3 9 10 -2 5 -8 10
-10 10 -5 0 11 45 13 56 3 3 -4 18 -3 32 0 35 9 64 8 80 -1 7 -5 12 -3 12 4 0
8 4 8 13 1 7 -6 18 -8 24 -4 15 9 55 8 71 -2 7 -4 12 -2 12 6 0 9 3 9 10 -2 5
-8 10 -10 10 -5 0 11 45 13 56 3 3 -4 18 -3 32 0 35 9 64 8 80 -1 7 -5 12 -3
12 4 0 8 4 8 13 1 7 -6 18 -8 24 -4 15 9 55 8 71 -2 7 -4 12 -2 12 6 0 9 3 9
10 -2 5 -8 10 -10 10 -5 0 11 45 13 56 3 3 -4 18 -3 32 0 35 9 64 8 80 -1 7
-5 12 -3 12 4 0 8 4 8 13 1 7 -6 18 -8 24 -4 15 9 55 8 71 -2 7 -4 12 -2 12 6
0 9 3 9 10 -2 5 -8 10 -10 10 -5 0 11 45 13 56 3 3 -4 18 -3 32 0 35 9 64 8
80 -1 7 -5 12 -3 12 4 0 8 4 8 13 1 7 -6 18 -8 24 -4 15 9 55 8 71 -2 7 -4 12
-2 12 6 0 9 3 9 10 -2 5 -8 10 -10 10 -5 0 11 45 13 56 3 3 -4 18 -3 32 0 35
9 64 8 80 -1 7 -5 12 -3 12 4 0 8 4 8 13 1 7 -6 18 -8 24 -4 15 9 55 8 71 -2
7 -4 12 -2 12 6 0 9 3 9 10 -2 5 -8 10 -10 10 -4 0 12 29 12 48 0 6 -4 12 -4
12 1 0 10 52 9 68 -1 7 -4 12 -4 12 1 0 9 67 9 76 0 3 -3 18 -2 32 1 35 9 64
8 80 -1 7 -5 12 -3 12 4 0 8 4 8 13 1 7 -6 18 -8 24 -4 15 9 55 8 71 -2 7 -4
12 -2 12 6 0 9 3 9 10 -2 5 -8 10 -10 10 -4 0 11 52 10 71 -1 5 -4 9 -2 9 2 0
5 15 8 34 7 l33 -2 0 2492 c0 1370 -2 2495 -4 2499 -3 4 -11 3 -19 -4 -11 -9
-14 -9 -14 0 0 9 -5 9 -21 0 -17 -8 -23 -8 -29 1 -5 8 -13 9 -21 4 -21 -13
-39 -13 -39 -1 0 7 -5 5 -10 -3 -6 -9 -10 -10 -10 -3 0 12 -30 10 -50 -2 -6
-3 -10 -2 -10 4 0 11 -19 9 -39 -3 -8 -5 -16 -4 -21 4 -8 13 -16 13 -42 -1
-11 -6 -18 -6 -18 0 0 10 -19 9 -37 -2 -8 -5 -13 -3 -13 3 0 8 -6 7 -21 -1
-12 -6 -24 -7 -28 -3 -8 12 -41 14 -41 4 0 -5 -12 -5 -28 -1 -15 5 -37 4 -50
0 -15 -6 -22 -5 -22 4 0 7 -3 8 -8 2 -11 -15 -32 -17 -32 -2 0 8 -4 7 -10 -3
-6 -9 -10 -10 -10 -3 0 12 -30 10 -50 -2 -6 -3 -10 -2 -10 4 0 10 -19 9 -37
-2 -8 -5 -13 -3 -13 3 0 8 -6 7 -21 -1 -12 -6 -24 -7 -28 -3 -8 12 -41 14 -41
3 0 -6 -8 -5 -19 1 -14 7 -22 7 -27 -1 -4 -8 -9 -7 -15 2 -5 8 -9 9 -9 3 0 -6
-7 -11 -15 -11 -8 0 -15 5 -15 11 0 6 -5 4 -10 -4 -6 -9 -10 -10 -10 -3 0 12
-30 10 -50 -2 -6 -3 -10 -2 -10 4 0 10 -19 9 -37 -2 -8 -5 -13 -3 -13 3 0 8
-6 7 -21 -1 -17 -8 -23 -8 -29 1 -5 8 -13 9 -21 4 -18 -11 -39 -14 -39 -6 0 9
-84 7 -98 -2 -7 -4 -12 -2 -12 5 0 8 -4 8 -15 -1 -11 -9 -15 -9 -15 -1 0 9 -5
9 -20 1 -11 -6 -20 -7 -20 -3 0 10 -63 9 -78 -1 -7 -4 -12 -2 -12 5 0 8 -4 8
-15 -1 -11 -9 -15 -9 -15 -1 0 9 -5 9 -20 1 -12 -6 -20 -7 -20 -1 0 6 -11 6
-30 1 -16 -5 -30 -5 -30 0 0 10 -19 8 -37 -3 -8 -5 -13 -3 -13 3 0 8 -6 7 -21
-1 -17 -8 -23 -8 -29 1 -5 8 -13 9 -21 4 -21 -13 -39 -13 -39 -1 0 7 -5 5 -10
-3 -6 -9 -10 -10 -10 -3 0 12 -30 10 -50 -2 -6 -3 -10 -2 -10 4 0 10 -19 9
-37 -2 -8 -5 -13 -3 -13 3 0 8 -6 7 -21 -1 -12 -6 -24 -7 -28 -3 -7 11 -32 11
-48 1 -8 -5 -13 -3 -13 5 0 9 -3 9 -10 -2 -6 -10 -10 -11 -10 -2 0 6 -6 11
-12 10 -9 -2 -13 12 -13 47 0 28 -4 55 -8 62 -4 6 -4 14 0 16 10 6 9 99 -1
115 -4 7 -4 12 1 12 10 0 10 161 0 177 -4 7 -4 14 0 16 10 6 9 98 0 114 -4 6
-4 14 1 17 8 5 9 46 1 62 -3 5 -4 19 -3 32 0 12 -2 22 -6 22 -5 0 -6 9 -3 20
3 11 0 27 -7 35 -6 8 -9 19 -6 24 4 5 2 12 -4 16 -6 4 -8 11 -5 16 4 5 1 9 -5
9 -6 0 -9 4 -5 9 3 5 1 12 -5 16 -6 4 -8 11 -5 16 4 5 2 9 -3 9 -5 0 -15 14
-22 30 -7 17 -17 30 -22 30 -5 0 -7 4 -4 8 3 5 -13 28 -34 52 -22 25 -40 48
-40 52 0 4 -5 8 -11 8 -15 0 -39 26 -32 34 4 3 1 6 -5 6 -10 0 -99 55 -112 69
-3 4 -14 8 -25 9 -11 2 -22 8 -25 12 -3 4 -16 10 -30 11 -14 2 -27 7 -30 11
-3 4 -20 8 -38 10 -18 1 -32 6 -32 10 0 4 -10 5 -22 3 -12 -3 -37 -1 -55 4
-24 7 -33 6 -33 -2 0 -7 -4 -6 -10 3 -8 12 -10 12 -10 1 0 -11 -3 -11 -15 -1
-11 9 -15 9 -15 1 0 -7 -5 -9 -11 -6 -18 12 -69 12 -69 1 0 -7 -3 -8 -8 -1 -4
6 -25 10 -47 10 -22 0 -43 -4 -47 -10 -5 -7 -8 -6 -8 0 0 6 -9 11 -20 11 -11
0 -20 -4 -20 -9 0 -5 -7 -4 -15 3 -12 10 -15 10 -15 0 0 -10 -3 -10 -15 0 -12
10 -15 10 -15 0 0 -10 -3 -10 -15 0 -11 9 -15 9 -15 1 0 -8 -6 -9 -17 -2 -27
14 -35 14 -44 -1 -5 -7 -9 -8 -9 -3 0 11 -91 12 -109 1 -6 -4 -11 -1 -11 6 0
10 -2 10 -9 -1 -7 -11 -9 -11 -14 0 -5 12 -7 12 -15 0 -8 -11 -10 -11 -15 0
-5 12 -6 12 -6 0 -1 -11 -4 -11 -16 -1 -12 10 -15 10 -15 -1 0 -11 -2 -11 -10
1 -7 11 -10 11 -10 2 0 -7 -5 -10 -11 -6 -15 9 -93 9 -107 0 -7 -4 -12 -2 -12
3 0 6 -5 11 -11 11 -5 0 -8 -3 -6 -7 3 -5 -53 -8 -124 -8 -79 0 -129 4 -129
10 0 7 -3 7 -8 0 -4 -6 -99 -10 -247 -10 -148 0 -243 4 -247 10 -5 7 -8 7 -8
0z m-33 -414 c9 8 13 8 13 0 0 -13 22 -10 32 4 5 6 8 6 8 -2 0 -12 17 -12 38
0 7 5 12 3 12 -3 0 -7 6 -8 19 0 14 7 22 7 26 0 5 -8 11 -8 20 0 10 8 15 8 20
0 5 -8 11 -8 21 1 11 9 14 9 14 0 0 -8 5 -9 19 -2 10 6 21 7 25 4 12 -12 36
-12 36 0 0 8 3 8 9 -1 9 -14 32 -13 43 3 5 6 8 6 8 -1 0 -14 30 -14 30 0 0 6
4 5 9 -2 4 -8 12 -14 16 -14 4 0 12 6 16 14 5 7 9 8 9 2 0 -14 30 -14 30 0 0
6 4 5 9 -2 4 -8 12 -14 16 -14 4 0 12 6 16 14 5 7 9 8 9 2 0 -14 30 -14 30 0
0 6 4 5 9 -2 4 -8 12 -14 16 -14 4 0 12 6 16 14 5 7 9 8 9 2 0 -6 7 -11 15
-11 8 0 15 4 15 9 0 5 10 4 21 -3 16 -8 20 -8 14 1 -6 9 -2 9 14 1 16 -9 21
-9 21 1 0 8 3 9 8 3 9 -13 42 -15 42 -3 0 7 4 7 13 1 16 -13 47 -12 47 1 0 7
3 8 8 1 9 -14 255 -14 264 0 5 7 8 7 8 0 0 -12 129 -14 147 -2 6 4 14 4 17 -1
6 -11 177 -9 195 2 9 6 12 5 8 0 -3 -6 34 -11 91 -12 121 -2 142 -4 142 -14 0
-4 7 -8 15 -8 8 0 15 -4 15 -10 0 -5 5 -10 11 -10 20 0 68 -64 84 -111 13 -38
16 -106 18 -347 l2 -301 -22 -10 c-16 -7 -23 -7 -23 0 0 6 -4 7 -10 4 -20 -12
-50 -14 -50 -2 0 7 -4 6 -10 -3 -6 -9 -10 -10 -10 -3 0 12 -30 10 -50 -2 -6
-3 -10 -2 -10 4 0 10 -19 9 -37 -2 -8 -5 -13 -3 -13 3 0 8 -6 7 -21 -1 -12 -6
-24 -7 -28 -3 -8 12 -41 14 -41 3 0 -6 -8 -5 -19 1 -14 7 -22 7 -27 -1 -4 -8
-9 -7 -15 2 -5 8 -9 9 -9 3 0 -6 -7 -11 -15 -11 -8 0 -15 5 -15 11 0 6 -5 4
-10 -4 -6 -9 -10 -10 -10 -3 0 12 -30 10 -50 -2 -6 -3 -10 -2 -10 4 0 10 -19
9 -37 -2 -8 -5 -13 -3 -13 3 0 8 -6 7 -21 -1 -17 -8 -23 -8 -29 1 -5 8 -13 9
-21 4 -19 -12 -39 -14 -39 -4 0 8 -55 4 -71 -5 -5 -4 -9 -2 -9 4 0 10 -19 9
-37 -2 -8 -5 -13 -3 -13 3 0 8 -6 7 -21 -1 -17 -8 -23 -8 -29 1 -5 8 -13 9
-21 4 -21 -13 -39 -13 -39 -1 0 7 -5 5 -10 -3 -6 -9 -10 -10 -10 -3 0 12 -30
10 -50 -2 -6 -3 -10 -2 -10 4 0 10 -19 9 -37 -2 -8 -5 -13 -3 -13 3 0 6 -5 8
-12 3 -17 -10 -38 -10 -66 -1 -14 5 -21 4 -17 -1 3 -6 -4 -9 -15 -8 -11 1 -20
5 -20 10 0 4 -6 5 -12 0 -17 -10 -29 -11 -56 -1 -14 5 -21 4 -17 -1 3 -6 -4
-9 -15 -8 -11 1 -20 5 -20 10 0 6 -5 6 -12 0 -14 -10 -76 -10 -103 1 -9 3 -13
2 -10 -4 3 -5 -4 -8 -15 -7 -11 1 -20 5 -20 10 0 4 -6 5 -12 0 -17 -10 -29
-11 -56 -1 -14 5 -21 4 -17 -1 3 -6 -4 -9 -15 -8 -11 1 -20 5 -20 10 0 4 -6 5
-12 0 -17 -10 -29 -11 -56 -1 -14 5 -21 4 -17 -1 3 -6 -4 -9 -15 -8 -11 1 -20
5 -20 10 0 4 -6 5 -12 0 -17 -10 -29 -11 -56 -1 -14 5 -21 4 -17 -1 3 -6 -4
-9 -15 -8 -11 1 -20 5 -20 10 0 4 -6 5 -12 0 -17 -10 -29 -11 -56 -1 -14 5
-21 4 -17 -1 3 -6 -4 -9 -15 -8 -11 1 -20 5 -20 10 0 4 -6 5 -12 0 -19 -11
-88 -10 -88 2 0 5 -4 4 -9 -3 -4 -8 -12 -14 -16 -14 -4 0 -12 6 -16 14 -7 11
-9 11 -9 -1 0 -10 -3 -11 -13 -2 -8 6 -16 9 -18 7 -2 -2 -4 137 -4 310 0 173
3 314 6 314 3 0 6 7 7 15 1 8 3 22 4 30 1 8 5 15 10 15 5 0 7 4 3 9 -3 6 0 13
8 18 7 4 23 21 35 37 12 16 22 25 22 21 0 -5 8 0 19 9 10 9 28 18 40 19 11 1
21 4 21 8 0 3 11 5 25 4 14 -2 28 1 31 7 4 6 10 6 17 -1 7 -7 14 -7 24 0z"/>
</g>
</svg>
